<svg width="5867" height="2594" viewBox="0 0 5867 2594" fill="none" xmlns="http://www.w3.org/2000/svg">
<g clip-path="url(#clip0_62_5609)">
<g filter="url(#filter0_i_62_5609)">
<path d="M663.278 333.11L1563.23 340.661C1815.6 342.779 2018.47 549.084 2016.36 801.455L2008.81 1701.41C2006.69 1953.78 1800.38 2156.65 1548.01 2154.53L700.545 2147.42L507.81 2255.79C484.829 2268.71 456.528 2252.92 457.382 2227.66L461.507 2105.57C302.913 2032.8 193.376 1871.98 194.935 1686.19L202.485 786.236C204.603 533.865 410.907 330.993 663.278 333.11Z" fill="#18A58C"/>
</g>
<path fill-rule="evenodd" clip-rule="evenodd" d="M1058.89 976.696C1055.05 973.222 1050.28 970.806 1045.1 970.66C1024.07 970.066 996.441 978.342 1007.06 1015.32C1008.17 1019.18 1010.52 1022.6 1013.49 1025.3C1092.92 1097.6 1174.51 1139.34 1257.51 1181.81C1300.27 1203.69 1343.41 1225.76 1386.82 1252.3L1386.83 1252.31C1534.62 1343.45 1601.88 1449.58 1617.11 1552.47C1632.35 1655.36 1595.28 1758.38 1521.78 1843.17C1374.82 2012.7 1085.75 2103.14 809.065 1948C624.859 1840.63 543.189 1670.65 466.565 1511.17C463.615 1505.03 460.672 1498.9 457.732 1492.8L410.27 1399.04C403.978 1386.61 388.835 1381.59 376.363 1387.79L362.743 1394.57C350.216 1400.8 345.108 1416.01 351.331 1428.54L398.901 1524.33L401.767 1530.34L405.409 1537.98C482.187 1699.07 571.585 1886.64 775.843 2005.58L776.071 2005.71L776.301 2005.84C1079.94 2176.25 1404.37 2080.08 1572 1886.71C1655.82 1790.02 1701.33 1667.48 1682.86 1542.73C1664.4 1417.99 1581.69 1294.39 1421.71 1195.73L1421.66 1195.7L1421.6 1195.67C1373.56 1166.28 1327.68 1142.66 1283.57 1119.95C1203.69 1078.81 1129.6 1040.66 1058.89 976.696Z" fill="#074972"/>
<path d="M398.901 1524.33C399.855 1526.33 400.81 1528.33 401.767 1530.34M398.901 1524.33L351.331 1428.54C345.108 1416.01 350.216 1400.8 362.743 1394.57L376.363 1387.79C388.835 1381.59 403.978 1386.61 410.27 1399.04L457.732 1492.8C460.672 1498.9 463.615 1505.03 466.565 1511.17C543.189 1670.65 624.859 1840.63 809.065 1948C1085.75 2103.14 1374.82 2012.7 1521.78 1843.17C1595.28 1758.38 1632.35 1655.36 1617.11 1552.47C1601.88 1449.58 1534.62 1343.45 1386.83 1252.31L1386.82 1252.3C1343.41 1225.76 1300.27 1203.69 1257.51 1181.81C1174.51 1139.34 1092.92 1097.6 1013.49 1025.3C1010.52 1022.6 1008.17 1019.18 1007.06 1015.32C996.441 978.342 1024.07 970.066 1045.1 970.66C1050.28 970.806 1055.05 973.222 1058.89 976.696C1129.6 1040.66 1203.69 1078.81 1283.57 1119.95C1327.68 1142.66 1373.56 1166.28 1421.6 1195.67L1421.66 1195.7L1421.71 1195.73C1581.69 1294.39 1664.4 1417.99 1682.86 1542.73C1701.33 1667.48 1655.82 1790.02 1572 1886.71C1404.37 2080.08 1079.94 2176.25 776.301 2005.84L776.071 2005.71L775.843 2005.58C571.585 1886.64 482.187 1699.07 405.409 1537.98M398.901 1524.33L401.767 1530.34M405.409 1537.98C404.192 1535.43 402.978 1532.88 401.767 1530.34M405.409 1537.98L401.767 1530.34" stroke="#074972" stroke-width="1.45768" stroke-linecap="round" stroke-linejoin="round"/>
<path d="M1189.2 1029.87C1166.94 1009.89 1143.25 989.996 1117.02 971.545C1040.65 917.822 951.003 872.861 850.302 890.065C831.421 893.291 813.125 898.728 795.627 906.073C719.801 937.899 658.991 1005.56 630.779 1084.5C596.057 1181.66 608.389 1299.51 697.489 1406.31C790.844 1518.21 1028.14 1625.48 1294.63 1700.03C1303.86 1702.61 1313.29 1704.8 1322.57 1707.29L1399.62 1727.15L1454.56 1662.53C1544.68 1553.87 1622.14 1449.21 1666.45 1363.67C1795.05 1115.39 1816.25 876.915 1727.67 746.869C1639.09 616.822 1431.21 613.784 1311.34 727.881C1251.41 784.931 1219.93 861.227 1202.66 936.385C1195.33 968.296 1191.3 999.714 1189.2 1029.87ZM809.793 973.421C823.45 966.362 837.458 961.547 851.284 959.185C906.588 949.737 986.609 980.172 1056.26 1029.17C1115.24 1070.66 1146.88 1087.46 1178.86 1125.85C1183.48 1143.67 1188.91 1159.57 1195.17 1171.59C1203.73 1188.05 1207.93 1198.19 1226.47 1208.1C1231.11 1210.58 1237.11 1214.49 1252.52 1213.27C1267.94 1212.04 1290.46 1196.79 1296.29 1186.06C1307.97 1164.61 1301.09 1160.48 1298.89 1153.21C1294.5 1138.67 1285.48 1122.99 1288.38 1135.48C1285.39 1131.46 1280.97 1126.49 1277.51 1122.14C1277.15 1120.37 1276.62 1119.12 1276.29 1117.28C1268.26 1072.43 1269.71 1003.28 1285.06 936.486C1300.4 869.694 1330.67 805.452 1369.46 768.536C1447.02 694.701 1584.45 689.977 1652.75 790.247C1721.05 890.515 1710.68 1114.32 1590.34 1346.66C1549.68 1425.15 1470.29 1531.8 1377.14 1643.59C1362.84 1639.87 1348.36 1636.5 1334.22 1632.54C1075.58 1560.19 843.237 1447.43 769.291 1358.8C691.089 1265.07 684.124 1167.28 710.93 1092.27C731.033 1036.01 768.822 994.6 809.793 973.421ZM1215.93 1179.81C1216.15 1180.4 1217.08 1182.05 1217.18 1182.4C1217.5 1183.47 1215.18 1184.06 1215.93 1179.81Z" fill="#18A58C"/>
<path d="M1369.46 768.536C1447.02 694.701 1584.45 689.977 1652.75 790.247C1721.05 890.515 1710.68 1114.32 1590.34 1346.66C1549.68 1425.15 1470.29 1531.8 1377.14 1643.59C1362.84 1639.87 1348.36 1636.5 1334.22 1632.54C1075.58 1560.19 843.237 1447.43 769.291 1358.8C691.089 1265.07 684.124 1167.28 710.93 1092.27C731.033 1036.01 768.822 994.6 809.793 973.421C823.45 966.362 837.458 961.547 851.284 959.185C906.588 949.737 986.609 980.172 1056.26 1029.17C1115.24 1070.66 1146.88 1087.46 1178.86 1125.85C1183.48 1143.67 1188.91 1159.57 1195.17 1171.59C1203.73 1188.05 1207.93 1198.19 1226.47 1208.1C1231.11 1210.58 1237.11 1214.49 1252.52 1213.27C1267.94 1212.04 1290.46 1196.79 1296.29 1186.06C1307.97 1164.61 1301.09 1160.48 1298.89 1153.21C1294.5 1138.67 1285.48 1122.99 1288.38 1135.48C1285.39 1131.46 1280.97 1126.49 1277.51 1122.14C1277.15 1120.37 1276.62 1119.12 1276.29 1117.28C1268.26 1072.43 1269.71 1003.28 1285.06 936.486C1300.4 869.694 1330.67 805.452 1369.46 768.536Z" fill="#18A58C"/>
<path d="M1189.2 1029.87C1166.94 1009.89 1143.25 989.996 1117.02 971.545C1040.65 917.822 951.003 872.861 850.302 890.065C831.421 893.291 813.125 898.728 795.627 906.073C719.801 937.899 658.991 1005.56 630.779 1084.5C596.057 1181.66 608.389 1299.51 697.489 1406.31C790.844 1518.21 1028.14 1625.48 1294.63 1700.03C1303.86 1702.61 1313.29 1704.8 1322.57 1707.29L1399.62 1727.15L1454.56 1662.53C1544.68 1553.87 1622.14 1449.21 1666.45 1363.67C1795.05 1115.39 1816.25 876.915 1727.67 746.869C1639.09 616.822 1431.21 613.784 1311.34 727.881C1251.41 784.931 1219.93 861.227 1202.66 936.385C1195.33 968.296 1191.3 999.714 1189.2 1029.87ZM809.793 973.421C823.45 966.362 837.458 961.547 851.284 959.185C906.588 949.737 986.609 980.172 1056.26 1029.17C1115.24 1070.66 1146.88 1087.46 1178.86 1125.85C1183.48 1143.67 1188.91 1159.57 1195.17 1171.59C1203.73 1188.05 1207.93 1198.19 1226.47 1208.1C1231.11 1210.58 1237.11 1214.49 1252.52 1213.27C1267.94 1212.04 1290.46 1196.79 1296.29 1186.06C1307.97 1164.61 1301.09 1160.48 1298.89 1153.21C1294.5 1138.67 1285.48 1122.99 1288.38 1135.48C1285.39 1131.46 1280.97 1126.49 1277.51 1122.14C1277.15 1120.37 1276.62 1119.12 1276.29 1117.28C1268.26 1072.43 1269.71 1003.28 1285.06 936.486C1300.4 869.694 1330.67 805.452 1369.46 768.536C1447.02 694.701 1584.45 689.977 1652.75 790.247C1721.05 890.515 1710.68 1114.32 1590.34 1346.66C1549.68 1425.15 1470.29 1531.8 1377.14 1643.59C1362.84 1639.87 1348.36 1636.5 1334.22 1632.54C1075.58 1560.19 843.237 1447.43 769.291 1358.8C691.089 1265.07 684.124 1167.28 710.93 1092.27C731.033 1036.01 768.822 994.6 809.793 973.421ZM1215.93 1179.81C1216.15 1180.4 1217.08 1182.05 1217.18 1182.4C1217.5 1183.47 1215.18 1184.06 1215.93 1179.81Z" stroke="#18A58C" stroke-width="315.578" stroke-linejoin="round"/>
<path d="M1369.46 768.536C1447.02 694.701 1584.45 689.977 1652.75 790.247C1721.05 890.515 1710.68 1114.32 1590.34 1346.66C1549.68 1425.15 1470.29 1531.8 1377.14 1643.59C1362.84 1639.87 1348.36 1636.5 1334.22 1632.54C1075.58 1560.19 843.237 1447.43 769.291 1358.8C691.089 1265.07 684.124 1167.28 710.93 1092.27C731.033 1036.01 768.822 994.6 809.793 973.421C823.45 966.362 837.458 961.547 851.284 959.185C906.588 949.737 986.609 980.172 1056.26 1029.17C1115.24 1070.66 1146.88 1087.46 1178.86 1125.85C1183.48 1143.67 1188.91 1159.57 1195.17 1171.59C1203.73 1188.05 1207.93 1198.19 1226.47 1208.1C1231.11 1210.58 1237.11 1214.49 1252.52 1213.27C1267.94 1212.04 1290.46 1196.79 1296.29 1186.06C1307.97 1164.61 1301.09 1160.48 1298.89 1153.21C1294.5 1138.67 1285.48 1122.99 1288.38 1135.48C1285.39 1131.46 1280.97 1126.49 1277.51 1122.14C1277.15 1120.37 1276.62 1119.12 1276.29 1117.28C1268.26 1072.43 1269.71 1003.28 1285.06 936.486C1300.4 869.694 1330.67 805.452 1369.46 768.536Z" stroke="#18A58C" stroke-width="315.578" stroke-linejoin="round"/>
<path d="M1193.82 1037.12C1172.34 1017.85 1149.48 998.647 1124.17 980.843C1050.48 929.006 963.983 885.622 866.816 902.223C848.597 905.336 830.943 910.582 814.059 917.669C740.893 948.378 682.217 1013.67 654.996 1089.84C621.492 1183.59 633.391 1297.3 719.364 1400.35C809.444 1508.32 1038.41 1611.83 1295.56 1683.76C1304.45 1686.25 1313.56 1688.36 1322.51 1690.77L1396.85 1709.94L1449.87 1647.58C1536.83 1542.74 1611.57 1441.75 1654.32 1359.21C1778.41 1119.64 1798.87 889.533 1713.4 764.051C1627.92 638.568 1427.34 635.636 1311.68 745.73C1253.85 800.777 1223.47 874.397 1206.81 946.917C1199.74 977.708 1195.85 1008.02 1193.82 1037.12ZM827.728 982.654C840.905 975.842 854.422 971.196 867.763 968.917C921.127 959.8 998.339 989.168 1065.54 1036.44C1122.46 1076.48 1152.98 1092.69 1183.84 1129.74C1188.3 1146.93 1193.54 1162.27 1199.58 1173.87C1207.85 1189.75 1211.89 1199.53 1229.79 1209.1C1234.26 1211.49 1240.05 1215.27 1254.92 1214.08C1269.8 1212.9 1291.53 1198.18 1297.16 1187.83C1308.42 1167.13 1301.78 1163.14 1299.66 1156.13C1295.43 1142.11 1286.73 1126.98 1289.52 1139.02C1286.64 1135.15 1282.37 1130.35 1279.03 1126.15C1278.69 1124.44 1278.17 1123.24 1277.86 1121.47C1270.11 1078.19 1271.51 1011.46 1286.32 947.014C1301.12 882.566 1330.33 820.578 1367.75 784.958C1442.6 713.714 1575.2 709.155 1641.1 805.907C1707.01 902.656 1697 1118.61 1580.88 1342.8C1541.65 1418.54 1465.05 1521.44 1375.17 1629.3C1361.37 1625.72 1347.4 1622.46 1333.75 1618.65C1084.19 1548.84 859.998 1440.03 788.647 1354.51C713.189 1264.06 706.469 1169.71 732.334 1097.33C751.732 1043.05 788.195 1003.09 827.728 982.654ZM1219.61 1181.8C1219.83 1182.37 1220.72 1183.96 1220.82 1184.3C1221.13 1185.33 1218.89 1185.9 1219.61 1181.8Z" fill="white"/>
<path d="M1367.75 784.958C1442.6 713.714 1575.2 709.155 1641.1 805.907C1707.01 902.656 1697 1118.61 1580.88 1342.8C1541.65 1418.54 1465.05 1521.44 1375.17 1629.3C1361.37 1625.72 1347.4 1622.46 1333.75 1618.65C1084.19 1548.84 859.998 1440.03 788.647 1354.51C713.189 1264.06 706.469 1169.71 732.334 1097.33C751.732 1043.05 788.195 1003.09 827.728 982.654C840.905 975.842 854.422 971.196 867.763 968.917C921.127 959.8 998.339 989.168 1065.54 1036.44C1122.46 1076.48 1152.98 1092.69 1183.84 1129.74C1188.3 1146.93 1193.54 1162.27 1199.58 1173.87C1207.85 1189.75 1211.89 1199.53 1229.79 1209.1C1234.26 1211.49 1240.05 1215.27 1254.92 1214.08C1269.8 1212.9 1291.53 1198.18 1297.16 1187.83C1308.42 1167.13 1301.78 1163.14 1299.66 1156.13C1295.43 1142.11 1286.73 1126.98 1289.52 1139.02C1286.64 1135.15 1282.37 1130.35 1279.03 1126.15C1278.69 1124.44 1278.17 1123.24 1277.86 1121.47C1270.11 1078.19 1271.51 1011.46 1286.32 947.014C1301.12 882.566 1330.33 820.578 1367.75 784.958Z" fill="white"/>
<path d="M1193.82 1037.12C1172.34 1017.85 1149.48 998.647 1124.17 980.843C1050.48 929.006 963.983 885.622 866.816 902.223C848.597 905.336 830.943 910.582 814.059 917.669C740.893 948.378 682.217 1013.67 654.996 1089.84C621.492 1183.59 633.391 1297.3 719.364 1400.35C809.444 1508.32 1038.41 1611.83 1295.56 1683.76C1304.45 1686.25 1313.56 1688.36 1322.51 1690.77L1396.85 1709.94L1449.87 1647.58C1536.83 1542.74 1611.57 1441.75 1654.32 1359.21C1778.41 1119.64 1798.87 889.533 1713.4 764.051C1627.92 638.568 1427.34 635.636 1311.68 745.73C1253.85 800.777 1223.47 874.397 1206.81 946.917C1199.74 977.708 1195.85 1008.02 1193.82 1037.12ZM827.728 982.654C840.905 975.842 854.422 971.196 867.763 968.917C921.127 959.8 998.339 989.168 1065.54 1036.44C1122.46 1076.48 1152.98 1092.69 1183.84 1129.74C1188.3 1146.93 1193.54 1162.27 1199.58 1173.87C1207.85 1189.75 1211.89 1199.53 1229.79 1209.1C1234.26 1211.49 1240.05 1215.27 1254.92 1214.08C1269.8 1212.9 1291.53 1198.18 1297.16 1187.83C1308.42 1167.13 1301.78 1163.14 1299.66 1156.13C1295.43 1142.11 1286.73 1126.98 1289.52 1139.02C1286.64 1135.15 1282.37 1130.35 1279.03 1126.15C1278.69 1124.44 1278.17 1123.24 1277.86 1121.47C1270.11 1078.19 1271.51 1011.46 1286.32 947.014C1301.12 882.566 1330.33 820.578 1367.75 784.958C1442.6 713.714 1575.2 709.155 1641.1 805.907C1707.01 902.656 1697 1118.61 1580.88 1342.8C1541.65 1418.54 1465.05 1521.44 1375.17 1629.3C1361.37 1625.72 1347.4 1622.46 1333.75 1618.65C1084.19 1548.84 859.998 1440.03 788.647 1354.51C713.189 1264.06 706.469 1169.71 732.334 1097.33C751.732 1043.05 788.195 1003.09 827.728 982.654ZM1219.61 1181.8C1219.83 1182.37 1220.72 1183.96 1220.82 1184.3C1221.13 1185.33 1218.89 1185.9 1219.61 1181.8Z" stroke="white" stroke-width="304.504" stroke-linejoin="round"/>
<path d="M1367.75 784.958C1442.6 713.714 1575.2 709.155 1641.1 805.907C1707.01 902.656 1697 1118.61 1580.88 1342.8C1541.65 1418.54 1465.05 1521.44 1375.17 1629.3C1361.37 1625.72 1347.4 1622.46 1333.75 1618.65C1084.19 1548.84 859.998 1440.03 788.647 1354.51C713.189 1264.06 706.469 1169.71 732.334 1097.33C751.732 1043.05 788.195 1003.09 827.728 982.654C840.905 975.842 854.422 971.196 867.763 968.917C921.127 959.8 998.339 989.168 1065.54 1036.44C1122.46 1076.48 1152.98 1092.69 1183.84 1129.74C1188.3 1146.93 1193.54 1162.27 1199.58 1173.87C1207.85 1189.75 1211.89 1199.53 1229.79 1209.1C1234.26 1211.49 1240.05 1215.27 1254.92 1214.08C1269.8 1212.9 1291.53 1198.18 1297.16 1187.83C1308.42 1167.13 1301.78 1163.14 1299.66 1156.13C1295.43 1142.11 1286.73 1126.98 1289.52 1139.02C1286.64 1135.15 1282.37 1130.35 1279.03 1126.15C1278.69 1124.44 1278.17 1123.24 1277.86 1121.47C1270.11 1078.19 1271.51 1011.46 1286.32 947.014C1301.12 882.566 1330.33 820.578 1367.75 784.958Z" stroke="white" stroke-width="304.504" stroke-linejoin="round"/>
<path fill-rule="evenodd" clip-rule="evenodd" d="M1249.65 842.332C1249.25 922.128 1298.77 898.035 1323.57 876.014C1341.97 830.194 1367.2 788.737 1396.86 760.265C1482.19 678.342 1632.64 660.844 1706.83 756.031C1781.02 851.216 1768.39 1078.74 1635.32 1325.09C1590.37 1408.31 1502.86 1523.62 1400.25 1645.4C1394.47 1644.5 1388.66 1643.65 1382.86 1642.8C1372.96 1641.34 1363.07 1639.89 1353.33 1638.19C1070.63 1588.88 816.946 1496.23 736.512 1413.34C651.447 1325.69 644.385 1227.34 674.158 1148.93C696.487 1090.12 738.089 1044.69 783.058 1019.46C798.048 1011.05 813.41 1004.88 828.558 1001.21C889.149 986.53 976.567 1009.94 1052.52 1053.09C1132.17 1074.28 1130.27 1019.28 1119.37 989.137C1036.08 941.818 938.208 904.596 827.88 931.331C807.193 936.343 787.134 943.541 767.938 952.595C684.754 991.83 617.801 1065.95 586.468 1148.48C547.902 1250.05 560.725 1368.22 657.642 1468.08C759.189 1572.72 1018.32 1659.36 1309.61 1710.17C1315.27 1711.16 1321.01 1712.02 1326.75 1712.88C1331.23 1713.54 1335.7 1714.21 1340.14 1714.94L1424.37 1727.92L1484.89 1657.41C1584.15 1539.08 1669.55 1425.96 1718.54 1335.27C1860.73 1072.02 1885.31 828.639 1789.09 705.185C1692.87 581.731 1465.34 597.889 1333.48 724.486C1296.83 759.668 1269.77 800.055 1249.65 842.332Z" fill="#074972" stroke="#074972" stroke-width="33.8338" stroke-linejoin="round"/>
<rect width="210.131" height="117.35" rx="58.6749" transform="matrix(-0.571532 0.82058 -0.84304 -0.537851 1203.52 963.676)" fill="#074972"/>
<rect width="210.131" height="117.35" rx="58.6749" transform="matrix(-0.82058 -0.571532 0.537851 -0.84304 1341.81 973.277)" fill="#074972"/>
<circle cx="565.117" cy="718.922" r="102.251" transform="rotate(43.2078 565.117 718.922)" fill="white"/>
<path d="M619.546 801.159L623.483 807.63L619.546 801.159ZM576.043 818.08L574.555 810.654L576.043 818.08ZM530.9 812.847L527.755 819.737L530.9 812.847ZM470.881 746.005L478.119 743.774L470.881 746.005ZM485.785 657.737L479.654 653.29L485.785 657.737ZM567.421 618.095L567.31 610.521L567.421 618.095ZM619.546 801.159L615.608 794.689C602.974 802.378 589.304 807.699 574.555 810.654L576.043 818.08L577.531 825.507C593.987 822.21 609.318 816.25 623.483 807.63L619.546 801.159ZM576.043 818.08L574.555 810.654C560.517 813.466 547.09 811.911 534.044 805.956L530.9 812.847L527.755 819.737C543.696 827.013 560.365 828.946 577.531 825.507L576.043 818.08ZM530.9 812.847L534.044 805.956C520.463 799.758 508.828 791.292 499.071 780.546L493.464 785.637L487.856 790.729C499.027 803.032 512.349 812.706 527.755 819.737L530.9 812.847ZM493.464 785.637L499.071 780.546C489.356 769.845 482.384 757.611 478.119 743.774L470.881 746.005L463.643 748.236C468.561 764.193 476.645 778.38 487.856 790.729L493.464 785.637ZM470.881 746.005L478.119 743.774C473.878 730.014 472.95 715.994 475.345 701.618L467.874 700.373L460.403 699.128C457.624 715.803 458.701 732.204 463.643 748.236L470.881 746.005ZM467.874 700.373L475.345 701.618C477.736 687.264 483.242 674.146 491.917 662.183L485.785 657.737L479.654 653.29C469.62 667.126 463.184 682.432 460.403 699.128L467.874 700.373ZM485.785 657.737L491.917 662.183C500.504 650.342 511.412 641.408 524.743 635.303L521.589 628.417L518.435 621.531C502.737 628.72 489.776 639.333 479.654 653.29L485.785 657.737ZM521.589 628.417L524.743 635.303C538.297 629.096 552.537 625.887 567.531 625.668L567.421 618.095L567.31 610.521C550.224 610.771 533.91 614.444 518.435 621.531L521.589 628.417ZM567.421 618.095L567.531 625.668C582.166 625.454 595.654 629.078 608.154 636.575L612.05 630.08L615.945 623.584C601.019 614.632 584.755 610.267 567.31 610.521L567.421 618.095ZM612.05 630.08L608.154 636.575C620.902 644.221 631.179 654.092 639.072 666.224L645.421 662.094L651.77 657.964C642.594 643.859 630.623 632.387 615.945 623.584L612.05 630.08ZM645.421 662.094L639.072 666.224C647.031 678.457 652.122 691.689 654.381 705.983L661.862 704.801L669.343 703.619C666.75 687.207 660.881 671.968 651.77 657.964L645.421 662.094ZM661.862 704.801L654.381 705.983C656.642 720.294 655.944 734.631 652.256 749.056L659.594 750.932L666.933 752.808C671.119 736.431 671.934 720.014 669.343 703.619L661.862 704.801ZM659.594 750.932L652.256 749.056C650.345 756.534 648.393 762.541 646.434 767.169C644.44 771.88 642.615 774.738 641.156 776.285L646.667 781.481L652.177 786.677C655.4 783.26 658.069 778.544 660.385 773.072C662.736 767.517 664.907 760.732 666.933 752.808L659.594 750.932ZM646.667 781.481L641.156 776.285C637.238 780.44 628.981 786.551 615.608 794.689L619.546 801.159L623.483 807.63C636.91 799.459 646.733 792.451 652.177 786.677L646.667 781.481Z" fill="white"/>
<circle cx="792.024" cy="659.303" r="75.7412" transform="rotate(-41.6121 792.024 659.303)" fill="white"/>
<path d="M866.601 664.177L862.814 664.171L866.601 664.177ZM809.896 731.403L810.831 735.073L809.896 731.403ZM786.642 733.336L786.958 729.563L786.642 733.336ZM753.472 595.194L755.344 598.486L753.472 595.194ZM798.884 585.157L798.709 588.94L798.884 585.157ZM840.064 602.761L837.538 605.583L840.064 602.761ZM854.823 619.155L851.587 621.122C855.501 627.561 858.346 634.409 860.129 641.678L863.807 640.776L867.485 639.874C865.516 631.849 862.372 624.283 858.059 617.188L854.823 619.155ZM863.807 640.776L860.129 641.678C861.931 649.025 862.826 656.52 862.814 664.171L866.601 664.177L870.389 664.183C870.401 655.926 869.434 647.821 867.485 639.874L863.807 640.776ZM866.601 664.177L862.814 664.171C862.803 671.621 861.35 678.787 858.448 685.699L861.939 687.165L865.431 688.632C868.72 680.8 870.375 672.641 870.389 664.183L866.601 664.177ZM861.939 687.165L858.448 685.699C855.501 692.714 851.58 699.101 846.677 704.873L849.563 707.324L852.45 709.776C857.857 703.411 862.185 696.359 865.431 688.632L861.939 687.165ZM849.563 707.324L846.677 704.873C841.795 710.62 836.132 715.389 829.675 719.191L831.597 722.454L833.518 725.717C840.708 721.483 847.023 716.165 852.45 709.776L849.563 707.324ZM831.597 722.454L829.675 719.191C823.159 723.028 816.257 725.874 808.96 727.733L809.896 731.403L810.831 735.073C818.823 733.036 826.388 729.916 833.518 725.717L831.597 722.454ZM809.896 731.403L808.96 727.733C801.724 729.577 794.396 730.186 786.958 729.563L786.642 733.336L786.326 737.11C794.604 737.804 802.778 737.124 810.831 735.073L809.896 731.403ZM786.642 733.336L786.958 729.563C779.436 728.932 772.112 727.32 764.978 724.723L763.682 728.282L762.387 731.84C770.149 734.666 778.131 736.423 786.326 737.11L786.642 733.336ZM763.682 728.282L764.978 724.723C757.966 722.171 751.638 718.444 745.973 713.528L743.491 716.388L741.009 719.248C747.37 724.768 754.502 728.97 762.387 731.84L763.682 728.282ZM743.491 716.388L745.973 713.528C740.294 708.599 735.663 702.882 732.064 696.362L728.749 698.193L725.433 700.023C729.466 707.328 734.663 713.741 741.009 719.248L743.491 716.388ZM728.749 698.193L732.064 696.362C728.401 689.727 725.63 682.765 723.747 675.469L720.08 676.416L716.413 677.362C718.456 685.277 721.464 692.833 725.433 700.023L728.749 698.193ZM720.08 676.416L723.747 675.469C721.876 668.223 721.081 660.818 721.364 653.243L717.58 653.101L713.795 652.96C713.485 661.259 714.357 669.398 716.413 677.362L720.08 676.416ZM717.58 653.101L721.364 653.243C721.644 645.753 723.214 638.52 726.08 631.525L722.576 630.089L719.072 628.653C715.87 636.466 714.109 644.574 713.795 652.96L717.58 653.101ZM722.576 630.089L726.08 631.525C728.951 624.518 732.902 618.201 737.943 612.556L735.118 610.034L732.294 607.511C726.679 613.798 722.269 620.85 719.072 628.653L722.576 630.089ZM735.118 610.034L737.943 612.556C742.999 606.895 748.795 602.209 755.344 598.486L753.472 595.194L751.6 591.902C744.333 596.034 737.893 601.241 732.294 607.511L735.118 610.034ZM753.472 595.194L755.344 598.486C761.906 594.756 768.846 592.152 776.179 590.668L775.427 586.956L774.676 583.244C766.551 584.889 758.855 587.778 751.6 591.902L753.472 595.194ZM775.427 586.956L776.179 590.668C783.602 589.164 791.109 588.588 798.709 588.94L798.884 585.157L799.059 581.374C790.84 580.994 782.71 581.617 774.676 583.244L775.427 586.956ZM798.884 585.157L798.709 588.94C806.122 589.282 813.18 591.027 819.911 594.181L821.518 590.752L823.125 587.322C815.496 583.748 807.465 581.762 799.059 581.374L798.884 585.157ZM821.518 590.752L819.911 594.181C826.801 597.41 832.663 601.219 837.538 605.583L840.064 602.761L842.59 599.94C837.095 595.02 830.593 590.822 823.125 587.322L821.518 590.752ZM840.064 602.761L837.538 605.583C840.141 607.914 842.178 609.677 843.62 610.841C844.326 611.411 844.973 611.905 845.51 612.256C845.755 612.416 846.134 612.652 846.568 612.834C846.77 612.918 847.194 613.082 847.744 613.144C848.214 613.197 849.565 613.259 850.761 612.196L848.247 609.364L845.732 606.533C846.895 605.5 848.192 605.573 848.59 605.617C849.067 605.671 849.401 605.808 849.492 605.846C849.704 605.935 849.785 606.002 849.656 605.917C849.444 605.779 849.034 605.477 848.376 604.947C847.091 603.909 845.171 602.251 842.59 599.94L840.064 602.761ZM848.247 609.364L850.761 612.196C849.226 613.56 847.49 613.1 846.952 612.892C846.395 612.676 846.052 612.38 845.991 612.329C845.808 612.174 845.753 612.085 845.873 612.233C846.067 612.47 846.415 612.948 846.95 613.743C847.996 615.301 849.536 617.749 851.587 621.122L854.823 619.155L858.059 617.188C855.996 613.794 854.383 611.226 853.237 609.52C852.675 608.684 852.168 607.968 851.746 607.45C851.558 607.219 851.256 606.862 850.885 606.548C850.73 606.417 850.308 606.069 849.688 605.829C849.085 605.596 847.301 605.139 845.732 606.533L848.247 609.364Z" fill="white"/>
<path d="M345.917 1382.34C339.962 1385.24 332.767 1382.77 329.846 1376.83L311.323 1339.13C308.402 1333.19 310.861 1326.02 316.815 1323.12L332.467 1315.49C338.422 1312.59 345.617 1315.06 348.538 1321.01L367.061 1358.7C369.982 1364.65 367.523 1371.82 361.569 1374.72L345.917 1382.34Z" fill="#074972"/>
<rect width="165.895" height="32.2914" rx="16.1457" transform="matrix(-0.903878 0.427789 -0.503429 -0.864037 429.724 1344.12)" fill="#074972"/>
<rect width="203.951" height="42.9272" rx="21.4636" transform="matrix(-0.903878 0.427789 -0.503429 -0.864037 423.728 1292.89)" fill="#074972"/>
</g>
<path d="M2240.68 1169.18L2241.29 389.418L2553.49 389.66C2610.86 389.705 2658.7 398.245 2697.02 415.281C2735.33 432.318 2764.12 455.946 2783.39 486.167C2802.66 516.133 2812.28 550.661 2812.25 589.751C2812.22 620.21 2806.11 646.985 2793.91 670.074C2781.71 692.909 2764.94 711.679 2743.61 726.385C2722.53 740.836 2698.4 751.098 2671.24 757.169L2671.23 764.783C2700.93 766.076 2728.72 774.473 2754.6 789.977C2780.73 805.481 2801.91 827.2 2818.13 855.133C2834.35 882.813 2842.45 915.817 2842.42 954.145C2842.39 995.52 2832.08 1032.44 2811.5 1064.92C2791.16 1097.14 2761.07 1122.62 2721.2 1141.38C2681.33 1160.13 2632.21 1169.48 2573.83 1169.44L2240.68 1169.18ZM2405.65 1034.52L2540.05 1034.63C2585.99 1034.66 2619.5 1025.93 2640.59 1008.44C2661.67 990.684 2672.22 967.086 2672.24 937.642C2672.26 916.066 2667.07 897.025 2656.68 880.518C2646.28 864.011 2631.44 851.054 2612.16 841.648C2593.13 832.241 2570.42 827.528 2544.02 827.507L2405.81 827.4L2405.65 1034.52ZM2405.89 715.843L2528.11 715.937C2550.7 715.955 2570.76 712.036 2588.28 704.181C2606.05 696.072 2620.02 684.661 2630.19 669.947C2640.61 655.233 2645.82 637.596 2645.84 617.035C2645.86 588.861 2635.85 566.135 2615.81 548.859C2596.03 531.583 2567.86 522.931 2531.31 522.903L2406.04 522.806L2405.89 715.843ZM3113.24 1180.9C3075.93 1180.87 3042.68 1174.37 3013.5 1161.4C2984.32 1148.18 2961.24 1128.74 2944.25 1103.09C2927.52 1077.19 2919.17 1044.95 2919.2 1006.37C2919.22 973.877 2925.21 946.595 2937.15 924.521C2949.1 902.447 2965.36 884.692 2985.93 871.255C3006.5 857.818 3029.86 847.683 3056.01 840.85C3082.41 834.017 3110.09 829.216 3139.02 826.446C3173.04 822.919 3200.46 819.64 3221.27 816.61C3242.09 813.327 3257.2 808.516 3266.59 802.177C3275.99 795.839 3280.69 786.451 3280.7 774.013L3280.7 771.729C3280.72 747.615 3273.12 728.953 3257.9 715.742C3242.94 702.531 3221.62 695.915 3193.95 695.894C3164.76 695.871 3141.53 702.326 3124.26 715.258C3106.99 727.936 3095.56 743.918 3089.96 763.205L2939.95 750.904C2947.6 715.374 2962.6 684.673 2984.95 658.8C3007.31 632.672 3036.14 612.642 3071.43 598.709C3106.98 584.522 3148.1 577.447 3194.81 577.483C3227.3 577.509 3258.39 581.34 3288.08 588.978C3318.03 596.616 3344.54 608.44 3367.63 624.449C3390.97 640.458 3409.35 661.032 3422.79 686.172C3436.22 711.058 3442.92 740.888 3442.9 775.662L3442.59 1170.11L3288.77 1169.99L3288.83 1088.89L3284.26 1088.89C3274.86 1107.16 3262.28 1123.27 3246.53 1137.22C3230.79 1150.91 3211.87 1161.68 3189.78 1169.53C3167.69 1177.13 3142.18 1180.92 3113.24 1180.9ZM3159.78 1069C3183.64 1069.01 3204.71 1064.33 3222.99 1054.96C3241.27 1045.33 3255.63 1032.39 3266.05 1016.15C3276.46 999.918 3281.68 981.519 3281.7 960.959L3281.75 898.898C3276.67 902.194 3269.69 905.234 3260.8 908.019C3252.17 910.551 3242.39 912.955 3231.48 915.231C3220.56 917.253 3209.64 919.148 3198.73 920.916C3187.81 922.431 3177.91 923.819 3169.03 925.082C3149.99 927.859 3133.36 932.288 3119.14 938.369C3104.92 944.45 3093.87 952.691 3086 963.092C3078.12 973.239 3074.17 985.927 3074.16 1001.16C3074.15 1023.24 3082.13 1040.13 3098.11 1051.81C3114.35 1063.25 3134.9 1068.98 3159.78 1069ZM3647.45 1389.58C3626.89 1389.56 3607.6 1387.9 3589.58 1384.58C3571.82 1381.52 3557.1 1377.58 3545.42 1372.75L3582.07 1251.7C3601.1 1257.55 3618.23 1260.74 3633.46 1261.26C3648.95 1261.78 3662.27 1258.23 3673.45 1250.63C3684.88 1243.02 3694.15 1230.08 3701.27 1211.81L3710.81 1187.07L3501.49 585.336L3672.06 585.468L3792.8 1015.04L3798.9 1015.04L3921.45 585.662L4093.16 585.795L3865.36 1233.64C3854.42 1265.11 3839.55 1292.51 3820.75 1315.85C3802.2 1339.44 3778.7 1357.57 3750.27 1370.24C3721.83 1383.16 3687.56 1389.61 3647.45 1389.58ZM4326.76 1181.84C4289.45 1181.81 4256.2 1175.31 4227.02 1162.34C4197.84 1149.12 4174.76 1129.69 4157.77 1104.04C4141.04 1078.13 4132.69 1045.89 4132.72 1007.31C4132.74 974.818 4138.73 947.536 4150.68 925.462C4162.62 903.389 4178.88 885.633 4199.45 872.196C4220.02 858.759 4243.38 848.624 4269.53 841.791C4295.94 834.958 4323.61 830.157 4352.55 827.387C4386.56 823.86 4413.98 820.582 4434.79 817.552C4455.61 814.268 4470.72 809.457 4480.11 803.119C4489.51 796.78 4494.21 787.392 4494.22 774.955L4494.23 772.67C4494.24 748.557 4486.64 729.894 4471.42 716.683C4456.46 703.473 4435.14 696.857 4407.47 696.835C4378.28 696.812 4355.05 703.267 4337.78 716.199C4320.51 728.877 4309.08 744.859 4303.48 764.146L4153.48 751.846C4161.12 716.316 4176.12 685.614 4198.48 659.741C4220.83 633.614 4249.66 613.584 4284.95 599.651C4320.5 585.464 4361.62 578.388 4408.33 578.425C4440.82 578.45 4471.91 582.281 4501.6 589.919C4531.55 597.557 4558.06 609.381 4581.15 625.39C4604.49 641.399 4622.88 661.974 4636.31 687.113C4649.74 711.999 4656.45 741.829 4656.42 776.603L4656.11 1171.05L4502.29 1170.93L4502.36 1089.84L4497.79 1089.83C4488.38 1108.1 4475.8 1124.21 4460.06 1138.16C4444.31 1151.85 4425.39 1162.62 4403.3 1170.48C4381.21 1178.07 4355.7 1181.86 4326.76 1181.84ZM4373.3 1069.94C4397.16 1069.96 4418.23 1065.28 4436.51 1055.9C4454.8 1046.27 4469.15 1033.33 4479.57 1017.1C4489.99 1000.86 4495.2 982.46 4495.22 961.9L4495.27 899.839C4490.19 903.135 4483.21 906.176 4474.32 908.961C4465.69 911.492 4455.91 913.896 4445 916.172C4434.08 918.194 4423.17 920.09 4412.25 921.858C4401.33 923.372 4391.43 924.761 4382.55 926.023C4363.51 928.8 4346.88 933.229 4332.66 939.31C4318.44 945.391 4307.39 953.632 4299.52 964.033C4291.64 974.18 4287.7 986.868 4287.68 1002.1C4287.67 1024.18 4295.65 1041.07 4311.63 1052.76C4327.87 1064.19 4348.42 1069.92 4373.3 1069.94ZM4944.41 833.177L4944.14 1171.28L4781.95 1171.15L4782.4 586.33L4936.98 586.45L4936.9 689.631L4943.76 689.636C4956.73 655.633 4978.45 628.744 5008.93 608.969C5039.4 588.94 5076.34 578.943 5119.75 578.977C5160.36 579.008 5195.76 587.92 5225.95 605.711C5256.14 623.502 5279.6 648.903 5296.33 681.914C5313.06 714.671 5321.4 753.767 5321.37 799.202L5321.08 1171.57L5158.88 1171.44L5159.15 828.013C5159.43 792.223 5150.32 764.295 5131.8 744.228C5113.29 723.908 5087.79 713.735 5055.3 713.71C5033.47 713.693 5014.17 718.373 4997.41 727.752C4980.91 737.131 4967.95 750.828 4958.54 768.842C4949.39 786.603 4944.68 808.048 4944.41 833.177Z" fill="#074972"/>
<path d="M2239.87 2201.78L2240.48 1422.02L2405.34 1422.15L2405.09 1743.88L2739.76 1744.14L2740.01 1422.41L2904.49 1422.54L2903.89 2202.3L2739.41 2202.17L2739.66 1880.06L2404.98 1879.8L2404.74 2201.91L2239.87 2201.78ZM3303.28 2214.03C3243.12 2213.99 3191.35 2201.76 3147.96 2177.36C3104.83 2152.71 3071.61 2117.9 3048.29 2072.96C3024.97 2027.76 3013.34 1974.32 3013.39 1912.64C3013.43 1852.48 3025.15 1799.69 3048.54 1754.28C3071.93 1708.86 3104.82 1673.48 3147.23 1648.13C3189.9 1622.78 3239.91 1610.12 3297.27 1610.17C3335.86 1610.2 3371.77 1616.45 3405.01 1628.91C3438.51 1641.12 3467.68 1659.54 3492.54 1684.18C3517.65 1708.83 3537.17 1739.81 3551.1 1777.13C3565.03 1814.2 3571.98 1857.61 3571.94 1907.36L3571.91 1951.91L3078.08 1951.53L3078.16 1851.01L3419.31 1851.27C3419.32 1827.92 3414.26 1807.23 3404.12 1789.2C3393.99 1771.17 3379.91 1757.07 3361.9 1746.91C3344.14 1736.48 3323.45 1731.27 3299.85 1731.25C3275.22 1731.23 3253.39 1736.92 3234.35 1748.33C3215.55 1759.48 3200.82 1774.58 3190.14 1793.6C3179.47 1812.38 3173.99 1833.32 3173.72 1856.41L3173.65 1951.98C3173.63 1980.92 3178.94 2005.92 3189.58 2027C3200.48 2048.08 3215.82 2064.33 3235.61 2075.77C3255.4 2087.21 3278.88 2092.94 3306.04 2092.96C3324.06 2092.97 3340.56 2090.45 3355.54 2085.38C3370.52 2080.32 3383.34 2072.71 3394.01 2062.57C3404.68 2052.42 3412.81 2039.99 3418.41 2025.27L3568.41 2035.29C3560.77 2071.33 3545.14 2102.79 3521.51 2129.68C3498.14 2156.31 3467.92 2177.1 3430.85 2192.05C3394.03 2206.74 3351.51 2214.07 3303.28 2214.03ZM3844.31 2214.07C3807 2214.04 3773.76 2207.54 3744.58 2194.58C3715.4 2181.35 3692.31 2161.92 3675.33 2136.27C3658.59 2110.36 3650.24 2078.12 3650.27 2039.54C3650.3 2007.05 3656.28 1979.77 3668.23 1957.69C3680.18 1935.62 3696.44 1917.87 3717.01 1904.43C3737.58 1890.99 3760.94 1880.86 3787.09 1874.02C3813.49 1867.19 3841.16 1862.39 3870.1 1859.62C3904.12 1856.09 3931.53 1852.81 3952.35 1849.78C3973.16 1846.5 3988.27 1841.69 3997.67 1835.35C4007.06 1829.01 4011.77 1819.62 4011.78 1807.19L4011.78 1804.9C4011.8 1780.79 4004.2 1762.13 3988.98 1748.92C3974.01 1735.7 3952.7 1729.09 3925.03 1729.07C3895.84 1729.04 3872.61 1735.5 3855.34 1748.43C3838.07 1761.11 3826.63 1777.09 3821.03 1796.38L3671.03 1784.08C3678.67 1748.55 3693.67 1717.85 3716.03 1691.97C3738.39 1665.85 3767.21 1645.82 3802.5 1631.88C3838.05 1617.7 3879.18 1610.62 3925.88 1610.66C3958.37 1610.68 3989.46 1614.51 4019.15 1622.15C4049.1 1629.79 4075.62 1641.61 4098.7 1657.62C4122.04 1673.63 4140.43 1694.21 4153.86 1719.35C4167.3 1744.23 4174 1774.06 4173.97 1808.84L4173.67 2203.28L4019.85 2203.17L4019.91 2122.07L4015.34 2122.06C4005.93 2140.33 3993.36 2156.44 3977.61 2170.39C3961.86 2184.08 3942.94 2194.86 3920.85 2202.71C3898.76 2210.31 3873.25 2214.09 3844.31 2214.07ZM3890.85 2102.17C3914.71 2102.19 3935.78 2097.51 3954.07 2088.13C3972.35 2078.5 3986.7 2065.56 3997.12 2049.33C4007.54 2033.09 4012.76 2014.69 4012.77 1994.13L4012.82 1932.07C4007.74 1935.37 4000.76 1938.41 3991.87 1941.19C3983.24 1943.72 3973.47 1946.13 3962.55 1948.4C3951.64 1950.43 3940.72 1952.32 3929.8 1954.09C3918.89 1955.6 3908.99 1956.99 3900.1 1958.25C3881.06 1961.03 3864.43 1965.46 3850.21 1971.54C3835.99 1977.62 3824.95 1985.86 3817.07 1996.26C3809.19 2006.41 3805.25 2019.1 3805.24 2034.33C3805.22 2056.41 3813.2 2073.3 3829.19 2084.99C3845.42 2096.42 3865.98 2102.15 3890.85 2102.17ZM4462.3 1423.75L4461.7 2203.51L4299.5 2203.38L4300.11 1423.62L4462.3 1423.75ZM4903.15 1619.03L4903.05 1740.87L4550.87 1740.59L4550.96 1618.76L4903.15 1619.03ZM4631.02 1478.7L4793.22 1478.83L4792.8 2024.05C4792.79 2039.03 4795.06 2050.71 4799.62 2059.09C4804.19 2067.21 4810.53 2072.93 4818.65 2076.24C4827.02 2079.54 4836.67 2081.2 4847.58 2081.21C4855.2 2081.21 4862.81 2080.59 4870.43 2079.32C4878.04 2077.81 4883.88 2076.67 4887.94 2075.91L4913.36 2196.62C4905.23 2199.16 4893.81 2202.07 4879.09 2205.35C4864.36 2208.9 4846.46 2211.04 4825.4 2211.79C4786.31 2213.28 4752.04 2208.05 4722.61 2196.1C4693.43 2184.14 4670.72 2165.6 4654.5 2140.45C4638.27 2115.31 4630.3 2083.58 4630.58 2045.25L4631.02 1478.7ZM5183.37 1865.97L5183.11 2204.07L5020.91 2203.94L5021.52 1424.18L5179.15 1424.3L5178.91 1722.42L5185.77 1722.43C5198.99 1687.92 5220.34 1660.9 5249.8 1641.38C5279.26 1621.61 5316.19 1611.74 5360.61 1611.77C5401.23 1611.8 5436.63 1620.71 5466.82 1638.5C5497.27 1656.04 5520.85 1681.32 5537.58 1714.33C5554.56 1747.08 5562.91 1786.31 5562.62 1832L5562.33 2204.36L5400.13 2204.24L5400.4 1860.81C5400.68 1824.76 5391.57 1796.71 5373.05 1776.64C5354.79 1756.57 5329.16 1746.53 5296.16 1746.5C5274.08 1746.49 5254.53 1751.17 5237.52 1760.54C5220.76 1769.92 5207.55 1783.62 5197.89 1801.63C5188.48 1819.39 5183.65 1840.84 5183.37 1865.97Z" fill="#18A58C"/>
<defs>
<filter id="filter0_i_62_5609" x="194.918" y="333.094" width="1821.46" height="1927.31" filterUnits="userSpaceOnUse" color-interpolation-filters="sRGB">
<feFlood flood-opacity="0" result="BackgroundImageFix"/>
<feBlend mode="normal" in="SourceGraphic" in2="BackgroundImageFix" result="shape"/>
<feColorMatrix in="SourceAlpha" type="matrix" values="0 0 0 0 0 0 0 0 0 0 0 0 0 0 0 0 0 0 127 0" result="hardAlpha"/>
<feOffset dx="-38.0233" dy="-19.0117"/>
<feComposite in2="hardAlpha" operator="arithmetic" k2="-1" k3="1"/>
<feColorMatrix type="matrix" values="0 0 0 0 0 0 0 0 0 0 0 0 0 0 0 0 0 0 0.25 0"/>
<feBlend mode="normal" in2="shape" result="effect1_innerShadow_62_5609"/>
</filter>
<clipPath id="clip0_62_5609">
<rect width="1822.46" height="1965.22" fill="white" transform="translate(195 314)"/>
</clipPath>
</defs>
</svg>
